<svg width="128" height="118" viewBox="0 0 128 118" fill="none" xmlns="http://www.w3.org/2000/svg">
<path d="M0 8C0 3.58172 3.58172 0 8 0H120C124.418 0 128 3.58172 128 8V110C128 114.418 124.418 118 120 118H8C3.58172 118 0 114.418 0 110V8Z" fill="#171A34"/>
<path d="M104.331 52.9385C102.279 51.5165 96.8877 50.9092 92.9687 51.9969C92.7584 47.978 90.7435 44.5908 87.061 41.6352L85.6983 40.6936L84.7898 42.1067C83.004 44.897 82.251 48.616 82.5174 51.9969C82.7277 54.08 83.4308 56.4206 84.7898 58.1193C79.6886 61.1658 74.9856 60.474 54.1601 60.474H22.0071C21.9138 65.3153 22.6692 74.6264 28.4213 82.2068C29.0572 83.0446 29.7529 83.8543 30.5096 84.6345C35.1864 89.4553 42.2527 92.9912 52.8185 93.0001C68.9386 93.0155 82.7489 84.0452 91.1505 62.3585C93.9145 62.4046 101.212 62.8684 104.784 55.7646C104.871 55.6455 105.693 53.8814 105.693 53.8814L104.331 52.9398V52.9385ZM42.9907 48.5123H33.9494V57.8195H42.9907V48.5123ZM54.6704 48.5123H45.629V57.8195H54.6704V48.5123ZM66.3513 48.5123H57.31V57.8195H66.3513V48.5123ZM78.0322 48.5123H68.9909V57.8195H78.0322V48.5123ZM31.3098 48.5123H22.2685V57.8195H31.3098V48.5123ZM42.9907 36.7568H33.9494V46.064H42.9907V36.7568ZM54.6704 36.7568H45.629V46.064H54.6704V36.7568ZM66.3513 36.7568H57.31V46.064H66.3513V36.7568ZM66.3513 25H57.31V34.3073H66.3513V25Z" fill="#1D63ED"/>
</svg>
