<svg width="48" height="48" viewBox="0 0 48 48" fill="none" xmlns="http://www.w3.org/2000/svg">
<g clip-path="url(#clip0_9319_17768)">
<path d="M47.1111 36.1774C45.4338 36.6041 44.3963 36.1961 43.4655 34.7979L36.8456 25.6362L35.8888 24.3677L28.158 34.8282C27.2747 36.0866 26.3481 36.6343 24.6997 36.1889L34.5991 22.896L25.3827 10.8889C26.9678 10.5804 28.0629 10.7376 29.0356 12.1574L35.9018 21.433L42.8185 12.2078C43.7047 10.9495 44.6571 10.4709 46.248 10.935L42.6744 15.6745L37.8327 21.9807C37.2563 22.7014 37.3356 23.1944 37.8658 23.8906L47.1111 36.1774ZM1.01153 22.6741L1.82135 18.6899C4.02604 10.8053 13.0609 7.52893 19.2917 12.401C22.933 15.2665 23.838 19.3198 23.6578 23.8604H3.13264C2.82427 32.0333 8.70488 36.9659 16.2023 34.4491C18.832 33.5655 20.3811 31.5057 21.1563 28.9284C21.5497 27.6369 22.201 27.4351 23.4143 27.8041C22.7947 31.0272 21.397 33.7198 18.443 35.4048C14.0293 37.9273 7.72934 37.1114 4.4151 33.6059C2.44097 31.572 1.62538 28.9947 1.25938 26.2387C1.20174 25.7832 1.08646 25.3494 1 24.9126C1.00769 24.1669 1.01153 23.4212 1.01153 22.6755V22.6741ZM3.1701 22.1263H21.7183C21.5973 16.2164 17.9185 12.019 12.8909 11.983C7.37198 11.9397 3.40931 16.0377 3.1701 22.1263Z" fill="white"/>
</g>
<defs>
<clipPath id="clip0_9319_17768">
<rect width="46.1111" height="35" fill="white" transform="translate(1 6)"/>
</clipPath>
</defs>
</svg>
