<svg width="48" height="48" viewBox="0 0 48 48" fill="none" xmlns="http://www.w3.org/2000/svg">
<g clip-path="url(#clip0_9288_21973)">
<g clip-path="url(#clip1_9288_21973)">
<path d="M5.79595 30.455L0.816895 3.59393L26.7121 1.08468L26.9829 28.402L16.6575 32.4935" fill="#E34F26"/>
<path d="M16.4864 30.1325L24.8077 26.8891L24.5689 3.49186L14.0042 4.51559" fill="#EF652A"/>
<path d="M14.9801 14.5856L10.6738 15.0029L10.0557 11.6151L14.6491 11.17L14.3295 7.87218L14.2721 7.87774L6.17627 8.66223L6.31928 9.54001L8.01333 18.6489L15.3053 17.9423L14.9801 14.5856ZM15.8189 23.2423L15.7615 23.2479L12.0472 22.5973L11.5607 19.9695L9.83821 20.1364L8.34536 20.2811L9.25515 25.4833L16.0982 26.7224L16.1556 26.7168L15.8189 23.2423Z" fill="#EBEBEB"/>
<path d="M14.9225 14.5912L15.2478 17.9479L19.267 17.5584L19.2816 21.8963L15.7613 23.2479L16.098 26.7224L22.5758 24.1925L22.5762 23.5981L22.4723 14.7512L22.5016 13.8567L21.5829 13.9458L14.9225 14.5912ZM14.272 7.87775L14.4717 9.93888L14.5915 11.1756L22.4577 10.4133L22.4466 9.70109L22.4534 7.9766L22.4252 7.08769L14.272 7.87775Z" fill="white"/>
</g>
<g clip-path="url(#clip2_9288_21973)">
<path d="M20.7767 43.0261L21.1008 14.5725L49.2923 17.4623L43.8347 45.3851L31.9687 47.3372L20.7767 43.0261Z" fill="#264DE4"/>
<path d="M41.8201 43.3649L46.4839 19.5035L34.9604 18.3223L32.2318 44.9423L41.8201 43.3649Z" fill="#2965F1"/>
<path d="M25.6744 27.9359L25.6363 31.4258L33.5341 32.2353L33.8885 28.7779L25.6744 27.9359ZM25.7225 24.3632L34.2514 25.2374L34.6058 21.7799L25.7561 20.8728L25.7225 24.3632ZM32.9681 37.7573L32.9522 37.7597L29.1282 36.3171L29.1596 33.5338L25.6167 33.1707L25.5547 38.6501L32.5827 41.3573L32.5993 41.3545L32.9681 37.7573Z" fill="#EBEBEB"/>
<path d="M33.8764 28.7767L33.522 32.2341L37.8679 32.6796L36.9986 37.1217L32.9557 37.7589L32.587 41.356L40.0235 40.1332L40.1365 39.5545L41.8988 30.5372L42.0802 29.6176L43.4346 22.6849L34.5938 21.7787L34.2393 25.2362L39.2124 25.746L38.5283 29.2535L33.8764 28.7767Z" fill="white"/>
</g>
</g>
<defs>
<clipPath id="clip0_9288_21973">
<rect width="48" height="48" fill="white"/>
</clipPath>
<clipPath id="clip1_9288_21973">
<rect width="29.5353" height="30.2927" fill="white" transform="translate(-0.905762 3.76086) rotate(-5.5347)"/>
</clipPath>
<clipPath id="clip2_9288_21973">
<rect width="32.1397" height="33.877" fill="white" transform="translate(19.4543 12) rotate(5.85266)"/>
</clipPath>
</defs>
</svg>
