<svg width="48" height="48" viewBox="0 0 48 48" fill="none" xmlns="http://www.w3.org/2000/svg">
<g clip-path="url(#clip0_9288_21885)">
<mask id="mask0_9288_21885" style="mask-type:alpha" maskUnits="userSpaceOnUse" x="2" y="2" width="44" height="44">
<path d="M24 46C36.1503 46 46 36.1503 46 24C46 11.8497 36.1503 2 24 2C11.8497 2 2 11.8497 2 24C2 36.1503 11.8497 46 24 46Z" fill="black"/>
</mask>
<g mask="url(#mask0_9288_21885)">
<path d="M24 46C36.1503 46 46 36.1503 46 24C46 11.8497 36.1503 2 24 2C11.8497 2 2 11.8497 2 24C2 36.1503 11.8497 46 24 46Z" fill="white"/>
<path d="M38.5464 40.5048L18.9013 15.1999H15.2V32.7926H18.1611V18.9603L36.2219 42.2953C37.0369 41.75 37.8133 41.1513 38.5464 40.5048Z" fill="url(#paint0_linear_9288_21885)"/>
<path d="M33.0444 15.1999H30.1111V32.7999H33.0444V15.1999Z" fill="url(#paint1_linear_9288_21885)"/>
</g>
</g>
<defs>
<linearGradient id="paint0_linear_9288_21885" x1="28.6444" y1="30.4777" x2="37.3222" y2="41.2332" gradientUnits="userSpaceOnUse">
<stop/>
<stop offset="1" stop-opacity="0"/>
</linearGradient>
<linearGradient id="paint1_linear_9288_21885" x1="31.5778" y1="15.1999" x2="31.5286" y2="28.1249" gradientUnits="userSpaceOnUse">
<stop/>
<stop offset="1" stop-opacity="0"/>
</linearGradient>
<clipPath id="clip0_9288_21885">
<rect width="44" height="44" fill="white" transform="translate(2 2)"/>
</clipPath>
</defs>
</svg>
