<svg width="48" height="48" viewBox="0 0 48 48" fill="none" xmlns="http://www.w3.org/2000/svg">
<path d="M24 48C23.3478 48 22.7391 47.8236 22.1739 47.5149L16.3913 44.0312C15.5217 43.5462 15.9565 43.3698 16.2174 43.2816C17.3913 42.8847 17.6087 42.7965 18.8261 42.0909C18.9565 42.0028 19.1304 42.0469 19.2609 42.135L23.6957 44.825C23.8696 44.9132 24.087 44.9132 24.2174 44.825L41.5652 34.6385C41.7391 34.5503 41.8261 34.3739 41.8261 34.1534V13.8245C41.8261 13.604 41.7391 13.4277 41.5652 13.3395L24.2174 3.19706C24.0435 3.10887 23.8261 3.10887 23.6957 3.19706L6.34783 13.3395C6.17391 13.4277 6.08696 13.6481 6.08696 13.8245V34.1534C6.08696 34.3298 6.17391 34.5503 6.34783 34.6385L11.087 37.4166C13.6522 38.7395 15.2609 37.1961 15.2609 35.6527V15.5884C15.2609 15.3238 15.4783 15.0593 15.7826 15.0593H18C18.2609 15.0593 18.5217 15.2797 18.5217 15.5884V35.6527C18.5217 39.1364 16.6522 41.1649 13.3913 41.1649C12.3913 41.1649 11.6087 41.1649 9.3913 40.0625L4.82609 37.4166C3.69565 36.7552 3 35.5204 3 34.1975V13.8686C3 12.5457 3.69565 11.311 4.82609 10.6495L22.1739 0.463022C23.2609 -0.154341 24.7391 -0.154341 25.8261 0.463022L43.1739 10.6495C44.3043 11.311 45 12.5457 45 13.8686V34.1975C45 35.5204 44.3043 36.7552 43.1739 37.4166L25.8261 47.6031C25.2609 47.8677 24.6087 48 24 48ZM29.3478 34.0211C21.7391 34.0211 20.1739 30.4933 20.1739 27.4947C20.1739 27.2301 20.3913 26.9655 20.6957 26.9655H22.9565C23.2174 26.9655 23.4348 27.1419 23.4348 27.4065C23.7826 29.7437 24.7826 30.8902 29.3913 30.8902C33.0435 30.8902 34.6087 30.0524 34.6087 28.068C34.6087 26.9214 34.1739 26.0836 28.4783 25.5103C23.7391 25.0253 20.7826 23.9669 20.7826 20.1305C20.7826 16.5586 23.7391 14.4419 28.6957 14.4419C34.2609 14.4419 37 16.3822 37.3478 20.6155C37.3478 20.7478 37.3043 20.8801 37.2174 21.0124C37.1304 21.1006 37 21.1888 36.8696 21.1888H34.6087C34.3913 21.1888 34.1739 21.0124 34.1304 20.7919C33.6087 18.3666 32.2609 17.5728 28.6957 17.5728C24.6957 17.5728 24.2174 18.9839 24.2174 20.0423C24.2174 21.3211 24.7826 21.718 30.1739 22.4235C35.5217 23.1291 38.0435 24.1433 38.0435 27.9357C38 31.8163 34.8696 34.0211 29.3478 34.0211Z" fill="#78CC65"/>
</svg>
