<svg width="48" height="48" viewBox="0 0 48 48" fill="none" xmlns="http://www.w3.org/2000/svg">
<path d="M24.0088 28.237C26.3776 28.237 28.2978 26.3187 28.2978 23.9524C28.2978 21.586 26.3776 19.6677 24.0088 19.6677C21.64 19.6677 19.7197 21.586 19.7197 23.9524C19.7197 26.3187 21.64 28.237 24.0088 28.237Z" fill="#00D8FF"/>
<path d="M24.0085 33.7678C17.985 33.7678 12.722 33.0594 8.7832 31.7109C6.22855 30.8403 4.05838 29.6795 2.51193 28.3566C0.871485 26.9568 0 25.429 0 23.9525C0 21.1188 3.11 18.3449 8.33037 16.5354C12.6023 15.0503 18.173 14.2224 24 14.2224C29.7245 14.2224 35.2182 15.0247 39.4646 16.4928C41.9509 17.3463 44.0441 18.4558 45.5308 19.6849C47.1456 21.0334 48 22.51 48 23.9525C48 26.8971 44.5226 29.8758 38.9178 31.728C34.9534 33.0424 29.6561 33.7678 24.0085 33.7678ZM24.0085 16.2708C18.4806 16.2708 13.0125 17.0731 9.01388 18.4644C4.21218 20.1373 2.0591 22.4247 2.0591 23.9525C2.0591 25.54 4.37451 28.0408 9.44963 29.7734C13.1748 31.0451 18.2157 31.7194 24.0085 31.7194C29.4425 31.7194 34.5091 31.0366 38.277 29.7819C43.5486 28.0322 45.958 25.5315 45.958 23.9525C45.958 23.1416 45.3428 22.1857 44.2236 21.2554C42.9334 20.1799 41.0538 19.1984 38.8067 18.4217C34.7654 17.039 29.5109 16.2708 24.0085 16.2708Z" fill="#00D8FF"/>
<path d="M14.2773 45.3071C13.4059 45.3071 12.6369 45.1193 11.9876 44.7437C9.53543 43.3269 8.68104 39.2471 9.71486 33.8273C10.5607 29.3805 12.6284 24.157 15.5418 19.1128C18.4041 14.1624 21.8388 9.80947 25.2307 6.86485C27.2129 5.14075 29.2207 3.87755 31.0321 3.21181C33.0057 2.48633 34.7145 2.48633 35.9619 3.20328C38.5166 4.67132 39.3624 9.17787 38.1663 14.9476C37.3204 19.0445 35.3041 23.9863 32.4845 28.8769C29.4771 34.0834 26.2304 38.2827 23.0947 41.0224C21.0613 42.7977 18.968 44.0951 17.0541 44.7694C16.0545 45.1278 15.1146 45.3071 14.2773 45.3071ZM16.4219 19.6249L17.3104 20.137C14.5507 24.9166 12.5087 30.0463 11.7227 34.2114C10.7743 39.2044 11.6885 42.2088 13.0043 42.9684C13.329 43.1562 13.7562 43.2586 14.2773 43.2586C15.9776 43.2586 18.6519 42.1832 21.7448 39.4861C24.7095 36.9 27.811 32.8714 30.7074 27.8613C33.4244 23.1584 35.3553 18.4299 36.1584 14.5465C37.2777 9.10958 36.3122 5.78089 34.9367 4.98712C34.2361 4.58597 33.0997 4.63718 31.7327 5.14075C30.152 5.72114 28.3663 6.85631 26.5721 8.41824C23.351 11.2178 20.0616 15.3829 17.3104 20.1455L16.4219 19.6249Z" fill="#00D8FF"/>
<path d="M33.7406 45.3333C31.4166 45.3333 28.469 43.9335 25.3931 41.2876C21.9584 38.3345 18.464 33.9389 15.5419 28.8946C12.6712 23.9442 10.6206 18.7975 9.75767 14.3849C9.25357 11.8073 9.15959 9.44305 9.48426 7.53971C9.84311 5.46568 10.689 3.9891 11.9449 3.26361C14.491 1.78704 18.8228 3.30629 23.2315 7.22391C26.3586 9.99783 29.6395 14.2142 32.4675 19.0963C35.4835 24.3027 37.5085 29.2104 38.3116 33.2902C38.8328 35.9361 38.9182 38.3942 38.5508 40.3914C38.1578 42.5167 37.2692 44.0274 35.9876 44.7699C35.3468 45.1455 34.5864 45.3333 33.7406 45.3333ZM17.3191 27.8704C20.0873 32.6501 23.522 36.9774 26.7345 39.7342C30.5879 43.0458 33.6466 43.7628 34.9709 42.9946C36.3465 42.2009 37.3547 38.949 36.3123 33.6913C35.5434 29.8335 33.6039 25.1391 30.6989 20.129C27.9734 15.4262 24.8378 11.3891 21.873 8.76024C17.7206 5.07306 14.3543 4.24515 12.9787 5.03892C12.2781 5.44007 11.757 6.45575 11.5092 7.88965C11.2272 9.54547 11.3127 11.6622 11.774 13.9923C12.5943 18.183 14.5594 23.1078 17.3191 27.8704Z" fill="#00D8FF"/>
</svg>
