<svg width="48" height="48" viewBox="0 0 48 48" fill="none" xmlns="http://www.w3.org/2000/svg">
<path fill-rule="evenodd" clip-rule="evenodd" d="M23.9728 10.2247C17.9026 10.2247 14.1097 13.2861 12.5914 19.4088C14.8679 16.3475 17.5235 15.1997 20.5581 15.9646C22.2896 16.4009 23.5277 17.6681 24.897 19.0712C27.1288 21.3559 29.7121 24 35.3533 24C41.4227 24 45.2165 20.9386 46.7338 14.8168C44.4582 17.8781 41.8027 19.0259 38.768 18.2601C37.0357 17.8238 35.7975 16.5566 34.4283 15.1544C32.1964 12.8679 29.614 10.2247 23.9728 10.2247ZM12.5914 24C6.52207 24 2.72828 27.0613 1.21094 33.1841C3.48739 30.1227 6.14296 28.9749 9.17675 29.7398C10.9091 30.1761 12.1472 31.4434 13.5165 32.8464C15.7483 35.1311 18.3307 37.7752 23.9728 37.7752C30.0422 37.7752 33.836 34.7147 35.3533 28.592C33.0769 31.6534 30.4213 32.8012 27.3866 32.0363C25.6552 31.5991 24.417 30.3318 23.0478 28.9297C20.8159 26.6449 18.2326 24 12.5914 24Z" fill="#38BDF8"/>
</svg>
