<svg width="48" height="48" viewBox="0 0 48 48" fill="none" xmlns="http://www.w3.org/2000/svg">
<g clip-path="url(#clip0_9288_21866)">
<rect x="2.09424" y="2.60376" width="43.3019" height="43.3019" rx="2.54717" fill="#3178C6"/>
<path fill-rule="evenodd" clip-rule="evenodd" d="M29.4086 37.0612V41.2951C30.0968 41.6479 30.9108 41.9125 31.8506 42.0889C32.7904 42.2653 33.7809 42.3535 34.8221 42.3535C35.8369 42.3535 36.8009 42.2565 37.7142 42.0624C38.6275 41.8684 39.4284 41.5486 40.1166 41.1032C40.8049 40.6578 41.3498 40.0756 41.7513 39.3567C42.1528 38.6379 42.3535 37.7492 42.3535 36.6908C42.3535 35.9234 42.2389 35.2508 42.0094 34.6731C41.78 34.0954 41.4491 33.5816 41.0167 33.1317C40.5843 32.6819 40.0659 32.2783 39.4614 31.9211C38.857 31.5638 38.1753 31.2265 37.4164 30.909C36.8605 30.6796 36.362 30.4569 35.9208 30.2408C35.4795 30.0247 35.1045 29.8042 34.7957 29.5793C34.4868 29.3543 34.2486 29.1162 34.0809 28.8648C33.9133 28.6134 33.8294 28.329 33.8294 28.0114C33.8294 27.7204 33.9044 27.4579 34.0545 27.2242C34.2045 26.9904 34.4163 26.7898 34.6898 26.6222C34.9634 26.4546 35.2986 26.3245 35.6957 26.2319C36.0929 26.1393 36.534 26.093 37.0194 26.093C37.3723 26.093 37.7451 26.1195 38.1378 26.1723C38.5305 26.2253 38.9253 26.3069 39.3225 26.4171C39.7196 26.5274 40.1056 26.6663 40.4807 26.8339C40.8557 27.0015 41.202 27.1955 41.5196 27.4161V23.46C40.8755 23.2131 40.1718 23.0301 39.4085 22.911C38.6452 22.7919 37.7694 22.7324 36.7811 22.7324C35.7751 22.7324 34.8221 22.8404 33.9221 23.0565C33.0221 23.2726 32.2301 23.61 31.5462 24.0686C30.8623 24.5274 30.3219 25.1117 29.9248 25.8218C29.5277 26.5318 29.3291 27.3807 29.3291 28.3686C29.3291 29.63 29.6932 30.7061 30.4212 31.597C31.1491 32.4878 32.2543 33.2419 33.7368 33.8594C34.3192 34.0976 34.8619 34.3313 35.3649 34.5606C35.8678 34.79 36.3024 35.0282 36.6686 35.2751C37.0348 35.5221 37.3238 35.7911 37.5356 36.0822C37.7474 36.3732 37.8533 36.704 37.8533 37.0745C37.8533 37.3479 37.7871 37.6015 37.6547 37.8352C37.5223 38.069 37.3216 38.2718 37.0524 38.4438C36.7833 38.6159 36.448 38.7503 36.0465 38.8473C35.645 38.9444 35.1752 38.9929 34.6368 38.9929C33.7191 38.9929 32.8103 38.832 31.9102 38.51C31.0101 38.1881 30.1762 37.7052 29.4086 37.0612ZM22.2909 26.6297H27.7222V23.1552H12.5835V26.6297H17.9883V42.0998H22.2909V26.6297Z" fill="white"/>
</g>
<defs>
<clipPath id="clip0_9288_21866">
<rect width="48" height="48" fill="white"/>
</clipPath>
</defs>
</svg>
